<svg width="254" height="80" viewBox="0 0 254 80" fill="none" xmlns="http://www.w3.org/2000/svg">
<g clip-path="url(#clip0_1152_930)">
<path d="M66.152 49V27.1818H74.3338C76.0099 27.1818 77.4162 27.473 78.5526 28.0554C79.696 28.6378 80.5589 29.4545 81.1413 30.5057C81.7308 31.5497 82.0256 32.7678 82.0256 34.1598C82.0256 35.5589 81.7273 36.7734 81.1307 37.8033C80.5412 38.826 79.6712 39.6179 78.5206 40.179C77.37 40.733 75.9567 41.0099 74.2805 41.0099H68.4531V37.7287H73.7479C74.728 37.7287 75.5305 37.5937 76.1555 37.3239C76.7805 37.0469 77.2422 36.6456 77.5405 36.12C77.8459 35.5874 77.9986 34.9339 77.9986 34.1598C77.9986 33.3857 77.8459 32.7251 77.5405 32.1783C77.2351 31.6243 76.7699 31.2053 76.1449 30.9212C75.5199 30.63 74.7138 30.4844 73.7266 30.4844H70.1044V49H66.152ZM77.4233 39.1136L82.8246 49H78.4141L73.1087 39.1136H77.4233ZM92.5032 49.3196C90.8626 49.3196 89.4457 48.9787 88.2525 48.2969C87.0664 47.608 86.1538 46.6349 85.5146 45.3778C84.8754 44.1136 84.5558 42.6257 84.5558 40.9141C84.5558 39.2308 84.8754 37.7536 85.5146 36.4822C86.1609 35.2038 87.0629 34.2095 88.2205 33.4993C89.3782 32.782 90.7383 32.4233 92.3008 32.4233C93.3093 32.4233 94.261 32.5866 95.1559 32.9134C96.0579 33.233 96.8533 33.7301 97.5423 34.4048C98.2383 35.0795 98.7852 35.9389 99.1829 36.983C99.5806 38.0199 99.7795 39.2557 99.7795 40.6903V41.8729H86.3668V39.2734H96.0827C96.0756 38.5348 95.9158 37.8778 95.6033 37.3026C95.2908 36.7202 94.854 36.2621 94.293 35.9283C93.739 35.5945 93.0927 35.4276 92.354 35.4276C91.5657 35.4276 90.8732 35.6193 90.2766 36.0028C89.68 36.3793 89.2148 36.8764 88.881 37.4943C88.5543 38.1051 88.3874 38.7763 88.3803 39.5078V41.777C88.3803 42.7287 88.5543 43.5455 88.9023 44.2273C89.2504 44.902 89.7369 45.4205 90.3619 45.7827C90.9869 46.1378 91.7184 46.3153 92.5565 46.3153C93.1175 46.3153 93.6254 46.2372 94.0799 46.081C94.5344 45.9176 94.9286 45.6797 95.2624 45.3672C95.5962 45.0547 95.8484 44.6676 96.0188 44.206L99.6197 44.6108C99.3924 45.5625 98.9592 46.3935 98.32 47.1037C97.6879 47.8068 96.8782 48.3537 95.891 48.7443C94.9038 49.1278 93.7745 49.3196 92.5032 49.3196ZM110.159 55.4773C108.774 55.4773 107.584 55.2891 106.59 54.9126C105.595 54.5433 104.796 54.0462 104.193 53.4212C103.589 52.7962 103.17 52.1037 102.936 51.3438L106.409 50.5021C106.565 50.8217 106.792 51.1378 107.09 51.4503C107.389 51.7699 107.79 52.0327 108.294 52.2386C108.806 52.4517 109.448 52.5582 110.222 52.5582C111.316 52.5582 112.222 52.2919 112.939 51.7592C113.656 51.2337 114.015 50.3672 114.015 49.1598V46.0597H113.823C113.624 46.4574 113.333 46.8658 112.95 47.2848C112.573 47.7038 112.073 48.0554 111.448 48.3395C110.83 48.6236 110.052 48.7656 109.115 48.7656C107.857 48.7656 106.718 48.4709 105.695 47.8814C104.679 47.2848 103.869 46.397 103.266 45.218C102.669 44.032 102.371 42.5476 102.371 40.7649C102.371 38.968 102.669 37.4517 103.266 36.2159C103.869 34.973 104.683 34.032 105.705 33.3928C106.728 32.7464 107.868 32.4233 109.125 32.4233C110.084 32.4233 110.872 32.5866 111.49 32.9134C112.115 33.233 112.612 33.62 112.982 34.0746C113.351 34.522 113.632 34.9446 113.823 35.3423H114.036V32.6364H117.84V49.2663C117.84 50.6655 117.506 51.8232 116.838 52.7393C116.171 53.6555 115.258 54.3409 114.1 54.7955C112.943 55.25 111.629 55.4773 110.159 55.4773ZM110.191 45.7401C111.007 45.7401 111.703 45.5412 112.279 45.1435C112.854 44.7457 113.291 44.174 113.589 43.4283C113.887 42.6825 114.036 41.7876 114.036 40.7436C114.036 39.7138 113.887 38.8118 113.589 38.0376C113.298 37.2635 112.865 36.6634 112.289 36.2372C111.721 35.804 111.021 35.5874 110.191 35.5874C109.331 35.5874 108.614 35.8111 108.039 36.2585C107.463 36.706 107.03 37.3203 106.739 38.1016C106.448 38.8757 106.302 39.7564 106.302 40.7436C106.302 41.745 106.448 42.6222 106.739 43.375C107.037 44.1207 107.474 44.7031 108.049 45.1222C108.632 45.5341 109.345 45.7401 110.191 45.7401ZM129.036 49.3196C127.396 49.3196 125.979 48.9787 124.786 48.2969C123.6 47.608 122.687 46.6349 122.048 45.3778C121.409 44.1136 121.089 42.6257 121.089 40.9141C121.089 39.2308 121.409 37.7536 122.048 36.4822C122.694 35.2038 123.596 34.2095 124.754 33.4993C125.911 32.782 127.271 32.4233 128.834 32.4233C129.843 32.4233 130.794 32.5866 131.689 32.9134C132.591 33.233 133.387 33.7301 134.075 34.4048C134.771 35.0795 135.318 35.9389 135.716 36.983C136.114 38.0199 136.313 39.2557 136.313 40.6903V41.8729H122.9V39.2734H132.616C132.609 38.5348 132.449 37.8778 132.137 37.3026C131.824 36.7202 131.387 36.2621 130.826 35.9283C130.272 35.5945 129.626 35.4276 128.887 35.4276C128.099 35.4276 127.406 35.6193 126.81 36.0028C126.213 36.3793 125.748 36.8764 125.414 37.4943C125.088 38.1051 124.921 38.7763 124.914 39.5078V41.777C124.914 42.7287 125.088 43.5455 125.436 44.2273C125.784 44.902 126.27 45.4205 126.895 45.7827C127.52 46.1378 128.252 46.3153 129.09 46.3153C129.651 46.3153 130.159 46.2372 130.613 46.081C131.068 45.9176 131.462 45.6797 131.796 45.3672C132.129 45.0547 132.382 44.6676 132.552 44.206L136.153 44.6108C135.926 45.5625 135.492 46.3935 134.853 47.1037C134.221 47.8068 133.411 48.3537 132.424 48.7443C131.437 49.1278 130.308 49.3196 129.036 49.3196ZM143.432 39.4119V49H139.575V32.6364H143.261V35.4169H143.453C143.83 34.5007 144.43 33.7727 145.254 33.233C146.085 32.6932 147.111 32.4233 148.332 32.4233C149.462 32.4233 150.445 32.6648 151.283 33.1477C152.129 33.6307 152.782 34.3303 153.244 35.2464C153.712 36.1626 153.943 37.2741 153.936 38.581V49H150.08V39.1776C150.08 38.0838 149.795 37.228 149.227 36.6101C148.666 35.9922 147.888 35.6832 146.894 35.6832C146.219 35.6832 145.619 35.8324 145.094 36.1307C144.575 36.4219 144.167 36.8445 143.869 37.3984C143.577 37.9524 143.432 38.6236 143.432 39.4119ZM170.619 32.6364C170.499 31.4219 169.962 30.456 169.011 29.7386C168.059 29.0213 166.862 28.6626 165.42 28.6626C164.405 28.6626 163.51 28.8366 162.736 29.1847C161.969 29.5327 161.365 30.0156 160.925 30.6335C160.491 31.2443 160.275 31.9403 160.275 32.7216C160.275 33.2969 160.399 33.8011 160.648 34.2344C160.896 34.6676 161.23 35.0405 161.649 35.353C162.075 35.6584 162.544 35.9212 163.055 36.1413C163.574 36.3615 164.096 36.5462 164.621 36.6953L166.923 37.3558C167.619 37.5476 168.315 37.7926 169.011 38.0909C169.707 38.3892 170.342 38.7656 170.918 39.2202C171.5 39.6676 171.965 40.218 172.313 40.8714C172.668 41.5178 172.846 42.2955 172.846 43.2045C172.846 44.3693 172.544 45.4169 171.94 46.3473C171.337 47.2777 170.47 48.0163 169.341 48.5632C168.212 49.103 166.859 49.3729 165.282 49.3729C163.798 49.3729 162.509 49.1278 161.415 48.6378C160.321 48.1406 159.462 47.4553 158.837 46.5817C158.212 45.7081 157.86 44.696 157.782 43.5455H159.827C159.898 44.4048 160.183 45.1328 160.68 45.7294C161.177 46.326 161.823 46.7805 162.619 47.093C163.414 47.3984 164.302 47.5511 165.282 47.5511C166.369 47.5511 167.335 47.37 168.18 47.0078C169.032 46.6385 169.7 46.1271 170.183 45.4737C170.673 44.8132 170.918 44.0462 170.918 43.1726C170.918 42.4339 170.726 41.8161 170.342 41.3189C169.959 40.8146 169.423 40.392 168.734 40.0511C168.052 39.7102 167.26 39.4084 166.358 39.1456L163.748 38.3786C162.036 37.8672 160.708 37.1605 159.763 36.2585C158.819 35.3565 158.347 34.206 158.347 32.8068C158.347 31.6349 158.659 30.6051 159.284 29.7173C159.916 28.8224 160.768 28.1264 161.841 27.6293C162.92 27.125 164.131 26.8729 165.474 26.8729C166.83 26.8729 168.031 27.1214 169.075 27.6186C170.119 28.1158 170.946 28.8011 171.557 29.6747C172.175 30.5412 172.505 31.5284 172.548 32.6364H170.619ZM183.638 49.3409C182.175 49.3409 180.9 48.9751 179.813 48.2436C178.734 47.5121 177.896 46.5107 177.299 45.2393C176.702 43.968 176.404 42.5192 176.404 40.8928C176.404 39.2521 176.706 37.7926 177.31 36.5142C177.92 35.2358 178.766 34.2344 179.845 33.5099C180.925 32.7784 182.178 32.4126 183.606 32.4126C184.7 32.4126 185.69 32.6257 186.578 33.0518C187.466 33.4709 188.197 34.0639 188.773 34.831C189.355 35.5909 189.721 36.4787 189.87 37.4943H187.952C187.754 36.571 187.274 35.7827 186.514 35.1293C185.761 34.4687 184.803 34.1385 183.638 34.1385C182.594 34.1385 181.67 34.4226 180.868 34.9908C180.065 35.5518 179.437 36.3366 178.982 37.3452C178.535 38.3466 178.311 39.5078 178.311 40.8288C178.311 42.157 178.531 43.3324 178.972 44.3551C179.412 45.3707 180.03 46.1662 180.825 46.7415C181.628 47.3168 182.565 47.6044 183.638 47.6044C184.362 47.6044 185.023 47.4695 185.619 47.1996C186.223 46.9226 186.727 46.532 187.132 46.0277C187.544 45.5234 187.821 44.9233 187.963 44.2273H189.881C189.739 45.2145 189.387 46.0952 188.826 46.8693C188.272 47.6364 187.551 48.2401 186.663 48.6804C185.783 49.1207 184.774 49.3409 183.638 49.3409ZM200.305 49.3409C198.892 49.3409 197.642 48.9822 196.555 48.2649C195.475 47.5476 194.63 46.5568 194.02 45.2926C193.409 44.0213 193.103 42.5547 193.103 40.8928C193.103 39.2166 193.409 37.7429 194.02 36.4716C194.63 35.1932 195.475 34.1989 196.555 33.4886C197.642 32.7713 198.892 32.4126 200.305 32.4126C201.718 32.4126 202.965 32.7713 204.044 33.4886C205.124 34.206 205.969 35.2003 206.58 36.4716C207.198 37.7429 207.507 39.2166 207.507 40.8928C207.507 42.5547 207.201 44.0213 206.591 45.2926C205.98 46.5568 205.131 47.5476 204.044 48.2649C202.965 48.9822 201.718 49.3409 200.305 49.3409ZM200.305 47.6044C201.441 47.6044 202.404 47.299 203.192 46.6882C203.98 46.0774 204.577 45.2642 204.982 44.2486C205.394 43.233 205.6 42.1143 205.6 40.8928C205.6 39.6712 205.394 38.549 204.982 37.5263C204.577 36.5036 203.98 35.6832 203.192 35.0653C202.404 34.4474 201.441 34.1385 200.305 34.1385C199.176 34.1385 198.213 34.4474 197.418 35.0653C196.63 35.6832 196.029 36.5036 195.618 37.5263C195.213 38.549 195.01 39.6712 195.01 40.8928C195.01 42.1143 195.213 43.233 195.618 44.2486C196.029 45.2642 196.63 46.0774 197.418 46.6882C198.206 47.299 199.169 47.6044 200.305 47.6044ZM211.67 49V32.6364H213.513V35.1506H213.651C213.978 34.3267 214.546 33.6626 215.356 33.1584C216.172 32.647 217.096 32.3913 218.126 32.3913C218.282 32.3913 218.456 32.3949 218.648 32.402C218.839 32.4091 218.999 32.4162 219.127 32.4233V34.3516C219.042 34.3374 218.893 34.3161 218.68 34.2876C218.466 34.2592 218.236 34.245 217.987 34.245C217.135 34.245 216.375 34.4261 215.707 34.7884C215.047 35.1435 214.525 35.6371 214.141 36.2692C213.758 36.9013 213.566 37.6222 213.566 38.4318V49H211.67ZM228.481 49.3409C226.954 49.3409 225.633 48.9858 224.518 48.2756C223.403 47.5582 222.54 46.5675 221.929 45.3033C221.325 44.032 221.023 42.5689 221.023 40.9141C221.023 39.2663 221.325 37.8033 221.929 36.5249C222.54 35.2393 223.381 34.2344 224.454 33.5099C225.533 32.7784 226.78 32.4126 228.193 32.4126C229.081 32.4126 229.937 32.576 230.76 32.9027C231.584 33.2223 232.323 33.7159 232.976 34.3835C233.637 35.044 234.159 35.8786 234.542 36.8871C234.926 37.8885 235.118 39.0746 235.118 40.4453V41.3828H222.334V39.7102H233.179C233.179 38.6591 232.966 37.7145 232.54 36.8764C232.121 36.0312 231.535 35.3636 230.782 34.8736C230.036 34.3835 229.173 34.1385 228.193 34.1385C227.156 34.1385 226.243 34.4155 225.455 34.9695C224.667 35.5234 224.049 36.255 223.601 37.1641C223.161 38.0732 222.937 39.0675 222.93 40.147V41.1484C222.93 42.4482 223.154 43.5845 223.601 44.5575C224.056 45.5234 224.699 46.2727 225.53 46.8054C226.361 47.3381 227.344 47.6044 228.481 47.6044C229.255 47.6044 229.933 47.4837 230.515 47.2422C231.105 47.0007 231.599 46.6776 231.996 46.2727C232.401 45.8608 232.706 45.4098 232.912 44.9197L234.713 45.5057C234.464 46.1946 234.056 46.8303 233.488 47.4126C232.927 47.995 232.224 48.4638 231.378 48.8189C230.54 49.1669 229.574 49.3409 228.481 49.3409Z" fill="black"/>
<path d="M17.0182 40.8902C17.5437 51.6694 27.4538 56.7881 32.3432 58C28.4024 53.2948 25.1187 48.1618 25.1187 40.6763C25.1187 34.6879 29.2784 28.2717 29.2784 28.2717L25.9944 28.0578C27.2204 24.8069 31.1756 21.9981 33 21C27.4538 23.1387 16.4928 30.111 17.0182 40.8902Z" fill="black"/>
<path d="M33.4686 28.4256C30.5269 35.0687 32.6755 43.5765 34.1175 47C36.4968 45.8346 41.9476 41.974 44.7163 35.8554C47.485 29.7367 47.1677 22.4526 46.663 19.6846C45.7978 18.8106 41.4717 18.5923 39.525 20.1218C37.3856 21.8028 37.0015 26.7502 37.362 28.8626L33.4686 28.4256Z" fill="black"/>
<path d="M44.7805 54.2122C41.5157 56.9487 36.3348 57.6062 34.1525 57.5929C34.4104 56.2162 35.6756 52.8254 38.6726 50.2764C41.6697 47.7274 45.8481 46.4318 47.5009 46.1244C48.1421 46.367 48.9966 48.4055 48.4594 49.6465C47.869 51.0103 46.0377 53.9657 44.7805 54.2122Z" fill="black"/>
</g>
<defs>
<clipPath id="clip0_1152_930">
<rect width="254" height="80" fill="white"/>
</clipPath>
</defs>
</svg>
