<svg width="400" height="400" viewBox="0 0 400 400" fill="none" xmlns="http://www.w3.org/2000/svg">
<path fill-rule="evenodd" clip-rule="evenodd" d="M370.474 95.3425L345.669 120.169L275.616 50.1159L299.368 26.3857C270.095 9.58904 236.164 0 200 0C163.836 0 129.905 9.58904 100.632 26.3857L124.384 50.1159L54.3309 120.169L29.5258 95.3425C10.7903 125.796 0 161.644 0 200C0 238.356 10.7903 274.204 29.5258 304.658L54.3309 279.831L124.384 349.884L100.632 373.614C129.905 390.411 163.836 400 200 400C236.164 400 270.095 390.411 299.368 373.614L275.616 349.884L345.669 279.831L370.474 304.658C389.21 274.204 400 238.356 400 200C400 161.644 389.21 125.796 370.474 95.3425ZM303.435 201.496C252.624 212.94 212.94 252.624 201.496 303.435L200 310.053L198.504 303.435C187.06 252.624 147.376 212.94 96.5648 201.496L89.9473 200L96.5648 198.504C147.376 187.06 187.06 147.376 198.504 96.5648L200 89.9473L201.496 96.5648C212.94 147.376 252.624 187.06 303.435 198.504L310.053 200L303.435 201.496Z" fill="#FF0420"/>
</svg>
