<svg width="150" height="43" viewBox="0 0 150 43" fill="none" xmlns="http://www.w3.org/2000/svg">
<g clip-path="url(#clip0_2605_2)">
<path d="M7.57408 20C5.34861 20 3.52522 19.4815 2.10391 18.4444C0.701303 17.3889 0 15.8889 0 13.9444C0 13.537 0.0467535 13.037 0.140261 12.4444C0.383379 11.1111 0.729356 9.50926 1.17819 7.63889C2.44989 2.5463 5.73199 0 11.0245 0C12.4645 0 13.7549 0.240741 14.8957 0.722223C16.0365 1.18519 16.9341 1.88889 17.5887 2.83333C18.2432 3.75926 18.5705 4.87037 18.5705 6.16667C18.5705 6.55556 18.5238 7.0463 18.4303 7.63889C18.1497 9.28704 17.8131 10.8889 17.4204 12.4444C16.7658 14.9815 15.6344 16.8796 14.0261 18.1389C12.4177 19.3796 10.2671 20 7.57408 20ZM7.96681 16C9.01409 16 9.9024 15.6944 10.6318 15.0833C11.3798 14.4722 11.9128 13.537 12.2307 12.2778C12.6609 10.537 12.9881 9.01852 13.2126 7.72222C13.2874 7.33333 13.3248 6.93518 13.3248 6.52778C13.3248 4.84259 12.4364 4 10.6598 4C9.61253 4 8.71486 4.30556 7.96681 4.91667C7.23745 5.52778 6.71381 6.46296 6.39589 7.72222C6.05926 8.96296 5.72264 10.4815 5.38601 12.2778C5.3112 12.6481 5.2738 13.037 5.2738 13.4444C5.2738 15.1481 6.17147 16 7.96681 16Z" fill="#FF0420"/>
<path d="M21.417 19.7222C21.2112 19.7222 21.0523 19.6574 20.9401 19.5278C20.8466 19.3796 20.8185 19.213 20.8559 19.0278L24.7271 0.972216C24.7645 0.768511 24.8674 0.601845 25.0357 0.472216C25.204 0.342586 25.3817 0.277771 25.5687 0.277771H33.0305C35.1064 0.277771 36.7708 0.703696 38.0238 1.55555C39.2955 2.4074 39.9314 3.63888 39.9314 5.24999C39.9314 5.71295 39.8753 6.19443 39.7631 6.69443C39.2955 8.82406 38.3511 10.3981 36.9298 11.4167C35.5272 12.4352 33.6009 12.9444 31.151 12.9444H27.364L26.0736 19.0278C26.0362 19.2315 25.9333 19.3981 25.765 19.5278C25.5967 19.6574 25.4191 19.7222 25.232 19.7222H21.417ZM31.3474 9.1111C32.1329 9.1111 32.8155 8.89814 33.3952 8.47221C33.9937 8.04629 34.3864 7.43517 34.5734 6.63888C34.6295 6.32406 34.6576 6.04629 34.6576 5.80554C34.6576 5.26851 34.4986 4.8611 34.1807 4.58332C33.8628 4.28703 33.3204 4.13888 32.5537 4.13888H29.1874L28.1214 9.1111H31.3474Z" fill="#FF0420"/>
<path d="M46.2519 19.7222C46.0462 19.7222 45.8872 19.6574 45.775 19.5278C45.6628 19.3796 45.6254 19.213 45.6628 19.0278L48.7766 4.63888H43.7833C43.5776 4.63888 43.4186 4.57406 43.3064 4.44444C43.2129 4.29629 43.1849 4.12962 43.2223 3.94443L43.8675 0.972216C43.9049 0.768511 44.0077 0.601845 44.176 0.472216C44.3443 0.342586 44.522 0.277771 44.709 0.277771H59.8011C60.0068 0.277771 60.1657 0.342586 60.278 0.472216C60.3528 0.583327 60.3902 0.694437 60.3902 0.805548C60.3902 0.861104 60.3808 0.91666 60.3621 0.972216L59.7169 3.94443C59.6795 4.14814 59.5767 4.31481 59.4083 4.44444C59.2587 4.57406 59.0811 4.63888 58.8754 4.63888H53.9101L50.7963 19.0278C50.7589 19.2315 50.6561 19.3981 50.4878 19.5278C50.3194 19.6574 50.1418 19.7222 49.9548 19.7222H46.2519Z" fill="#FF0420"/>
<path d="M61.1058 19.7222C60.9001 19.7222 60.7412 19.6574 60.629 19.5278C60.5167 19.3796 60.4793 19.213 60.5167 19.0278L64.416 0.972216C64.4534 0.768511 64.5563 0.601845 64.7246 0.472216C64.8929 0.342586 65.0705 0.277771 65.2576 0.277771H69.0446C69.2503 0.277771 69.4093 0.342586 69.5215 0.472216C69.5963 0.583327 69.6337 0.694437 69.6337 0.805548C69.6337 0.861104 69.6243 0.91666 69.6056 0.972216L65.7344 19.0278C65.697 19.2315 65.5942 19.3981 65.4259 19.5278C65.2576 19.6574 65.0799 19.7222 64.8929 19.7222H61.1058Z" fill="#FF0420"/>
<path d="M71.7872 19.7222C71.5815 19.7222 71.4225 19.6574 71.3103 19.5278C71.1981 19.3981 71.1607 19.2315 71.1981 19.0278L75.0693 0.972216C75.1067 0.768511 75.2095 0.601845 75.3778 0.472216C75.5462 0.342586 75.7332 0.277771 75.9389 0.277771H78.9685C79.4174 0.277771 79.7072 0.481474 79.8381 0.888882L82.8958 9.63888L89.7125 0.888882C89.806 0.740734 89.9369 0.601845 90.1052 0.472216C90.2922 0.342586 90.5167 0.277771 90.7785 0.277771H93.8362C94.0419 0.277771 94.2008 0.342586 94.313 0.472216C94.3878 0.583327 94.4253 0.694437 94.4253 0.805548C94.4253 0.861104 94.4159 0.91666 94.3972 0.972216L90.526 19.0278C90.4886 19.2315 90.3857 19.3981 90.2174 19.5278C90.0491 19.6574 89.8715 19.7222 89.6844 19.7222H86.2901C86.0844 19.7222 85.9255 19.6574 85.8132 19.5278C85.7197 19.3796 85.6917 19.213 85.7291 19.0278L87.9172 8.77777L83.6252 14.4167C83.4382 14.6204 83.2605 14.7778 83.0922 14.8889C82.9239 15 82.7275 15.0556 82.5031 15.0556H81.0444C80.6517 15.0556 80.3805 14.8426 80.2309 14.4167L78.2392 8.52777L75.995 19.0278C75.9576 19.2315 75.8547 19.3981 75.6864 19.5278C75.5181 19.6574 75.3404 19.7222 75.1534 19.7222H71.7872Z" fill="#FF0420"/>
<path d="M96.5484 19.7222C96.3426 19.7222 96.1837 19.6574 96.0715 19.5278C95.9593 19.3796 95.9219 19.213 95.9593 19.0278L99.8585 0.972216C99.8959 0.768511 99.9988 0.601845 100.167 0.472216C100.335 0.342586 100.513 0.277771 100.7 0.277771H104.487C104.693 0.277771 104.852 0.342586 104.964 0.472216C105.039 0.583327 105.076 0.694437 105.076 0.805548C105.076 0.861104 105.067 0.91666 105.048 0.972216L101.177 19.0278C101.14 19.2315 101.037 19.3981 100.868 19.5278C100.7 19.6574 100.522 19.7222 100.335 19.7222H96.5484Z" fill="#FF0420"/>
<path d="M114.159 20C112.513 20 111.101 19.7778 109.923 19.3333C108.763 18.8889 107.884 18.2963 107.286 17.5556C106.706 16.8148 106.416 15.9907 106.416 15.0833C106.416 14.9352 106.435 14.713 106.472 14.4167C106.51 14.25 106.585 14.1111 106.697 14C106.828 13.8889 106.977 13.8333 107.146 13.8333H110.736C110.961 13.8333 111.129 13.8704 111.241 13.9444C111.372 14.0185 111.503 14.1481 111.634 14.3333C111.765 14.8148 112.064 15.213 112.532 15.5278C113.018 15.8426 113.682 16 114.523 16C115.589 16 116.45 15.8333 117.104 15.5C117.759 15.1667 118.152 14.713 118.282 14.1389C118.301 14.0648 118.31 13.9537 118.31 13.8056C118.31 13.3426 118.021 12.9815 117.441 12.7222C116.861 12.4444 115.795 12.1204 114.243 11.75C112.429 11.3611 111.054 10.7778 110.119 10C109.184 9.2037 108.717 8.16667 108.717 6.88889C108.717 6.44444 108.773 5.99074 108.885 5.52778C109.259 3.80556 110.185 2.4537 111.662 1.47222C113.158 0.490741 115.084 0 117.441 0C118.862 0 120.125 0.25 121.228 0.75C122.331 1.25 123.182 1.88889 123.781 2.66667C124.398 3.42593 124.706 4.18519 124.706 4.94445C124.706 5.16667 124.697 5.32407 124.678 5.41667C124.641 5.58333 124.557 5.72222 124.426 5.83333C124.314 5.94445 124.173 6 124.005 6H120.246C119.835 6 119.554 5.84259 119.405 5.52778C119.386 5.10185 119.161 4.74074 118.731 4.44445C118.301 4.14815 117.74 4 117.048 4C116.225 4 115.543 4.14815 115 4.44445C114.477 4.74074 114.149 5.17593 114.019 5.75C114 5.84259 113.99 5.96296 113.99 6.11111C113.99 6.55556 114.252 6.92593 114.776 7.22222C115.318 7.5 116.263 7.78704 117.609 8.08333C119.704 8.49074 121.228 9.07407 122.182 9.83333C123.154 10.5926 123.64 11.6019 123.64 12.8611C123.64 13.287 123.584 13.75 123.472 14.25C123.061 16.1389 122.06 17.5741 120.47 18.5556C118.9 19.5185 116.796 20 114.159 20Z" fill="#FF0420"/>
<path d="M127.362 19.7222C127.156 19.7222 126.997 19.6574 126.885 19.5278C126.773 19.3981 126.735 19.2315 126.773 19.0278L130.644 0.972216C130.681 0.768511 130.784 0.601845 130.953 0.472216C131.121 0.342586 131.308 0.277771 131.514 0.277771H134.543C134.992 0.277771 135.282 0.481474 135.413 0.888882L138.471 9.63888L145.287 0.888882C145.381 0.740734 145.512 0.601845 145.68 0.472216C145.867 0.342586 146.091 0.277771 146.353 0.277771H149.411C149.617 0.277771 149.776 0.342586 149.888 0.472216C149.963 0.583327 150 0.694437 150 0.805548C150 0.861104 149.991 0.91666 149.972 0.972216L146.101 19.0278C146.063 19.2315 145.96 19.3981 145.792 19.5278C145.624 19.6574 145.446 19.7222 145.259 19.7222H141.865C141.659 19.7222 141.5 19.6574 141.388 19.5278C141.294 19.3796 141.266 19.213 141.304 19.0278L143.492 8.77777L139.2 14.4167C139.013 14.6204 138.835 14.7778 138.667 14.8889C138.499 15 138.302 15.0556 138.078 15.0556H136.619C136.226 15.0556 135.955 14.8426 135.806 14.4167L133.814 8.52777L131.57 19.0278C131.532 19.2315 131.429 19.3981 131.261 19.5278C131.093 19.6574 130.915 19.7222 130.728 19.7222H127.362Z" fill="#FF0420"/>
</g>
<path d="M59.1591 39H57.6818L63.8864 27.3636H65.3409L67.6818 39H66.2045L64.3636 29.2045H64.2727L59.1591 39ZM60.4545 34.4545H66.4091L66.2045 35.7045H60.25L60.4545 34.4545ZM74.0156 30.2727L73.8338 31.4091H69.3111L69.4929 30.2727H74.0156ZM71.152 28.1818H72.4929L71.1065 36.5C71.0459 36.8788 71.0554 37.1629 71.1349 37.3523C71.2183 37.5379 71.3433 37.6629 71.5099 37.7273C71.6804 37.7879 71.8641 37.8182 72.0611 37.8182C72.2088 37.8182 72.33 37.8106 72.4247 37.7955C72.5194 37.7765 72.5952 37.7614 72.652 37.75L72.7429 38.9545C72.6406 38.9886 72.5024 39.0227 72.3281 39.0568C72.1577 39.0947 71.9474 39.1136 71.6974 39.1136C71.3187 39.1136 70.9626 39.0322 70.6293 38.8693C70.2959 38.7064 70.0402 38.4583 69.8622 38.125C69.6842 37.7917 69.6368 37.3712 69.7202 36.8636L71.152 28.1818ZM79.8281 30.2727L79.6463 31.4091H75.1236L75.3054 30.2727H79.8281ZM76.9645 28.1818H78.3054L76.919 36.5C76.8584 36.8788 76.8679 37.1629 76.9474 37.3523C77.0308 37.5379 77.1558 37.6629 77.3224 37.7273C77.4929 37.7879 77.6766 37.8182 77.8736 37.8182C78.0213 37.8182 78.1425 37.8106 78.2372 37.7955C78.3319 37.7765 78.4077 37.7614 78.4645 37.75L78.5554 38.9545C78.4531 38.9886 78.3149 39.0227 78.1406 39.0568C77.9702 39.0947 77.7599 39.1136 77.5099 39.1136C77.1312 39.1136 76.7751 39.0322 76.4418 38.8693C76.1084 38.7064 75.8527 38.4583 75.6747 38.125C75.4967 37.7917 75.4493 37.3712 75.5327 36.8636L76.9645 28.1818ZM83.9332 39.1818C83.0961 39.1818 82.4048 38.9962 81.8594 38.625C81.3139 38.25 80.9332 37.7273 80.7173 37.0568C80.5014 36.3826 80.4673 35.5985 80.6151 34.7045C80.7628 33.8106 81.0563 33.0227 81.4957 32.3409C81.9351 31.6553 82.4825 31.1212 83.1378 30.7386C83.7931 30.3523 84.5128 30.1591 85.2969 30.1591C85.7514 30.1591 86.1889 30.2348 86.6094 30.3864C87.0298 30.5379 87.3935 30.7841 87.7003 31.125C88.0071 31.4621 88.2211 31.9091 88.3423 32.4659C88.4635 33.0227 88.456 33.7083 88.3196 34.5227L88.2287 35.0909H81.5014L81.6832 33.9318H87.0469C87.134 33.4394 87.1113 33 86.9787 32.6136C86.8499 32.2273 86.6245 31.9223 86.3026 31.6989C85.9844 31.4754 85.581 31.3636 85.0923 31.3636C84.5885 31.3636 84.1188 31.5 83.6832 31.7727C83.2476 32.0417 82.884 32.3826 82.5923 32.7955C82.3007 33.2045 82.1188 33.6212 82.0469 34.0455L81.8878 35.0455C81.7741 35.7689 81.7912 36.3447 81.9389 36.7727C82.0904 37.2008 82.3537 37.5095 82.7287 37.6989C83.1037 37.8845 83.5734 37.9773 84.1378 37.9773C84.4976 37.9773 84.8291 37.928 85.1321 37.8295C85.4351 37.7273 85.706 37.5758 85.9446 37.375C86.1832 37.1705 86.384 36.9167 86.5469 36.6136L87.7741 36.9773C87.5658 37.4167 87.2723 37.803 86.8935 38.1364C86.5185 38.4659 86.0791 38.7235 85.5753 38.9091C85.0753 39.0909 84.5279 39.1818 83.9332 39.1818ZM96.9588 32.2273L95.6861 32.5682C95.6406 32.3636 95.5611 32.1667 95.4474 31.9773C95.3376 31.7841 95.1671 31.6269 94.9361 31.5057C94.7088 31.3807 94.3982 31.3182 94.0043 31.3182C93.4702 31.3182 93.0062 31.4413 92.6122 31.6875C92.2183 31.9299 91.9929 32.2386 91.9361 32.6136C91.8793 32.9432 91.955 33.2064 92.1634 33.4034C92.3717 33.6004 92.7202 33.7614 93.2088 33.8864L94.4588 34.2045C95.2088 34.3977 95.7429 34.6875 96.0611 35.0739C96.383 35.4564 96.4929 35.9545 96.3906 36.5682C96.3073 37.0682 96.0895 37.5152 95.7372 37.9091C95.3849 38.303 94.9342 38.6136 94.3849 38.8409C93.8357 39.0682 93.224 39.1818 92.5497 39.1818C91.652 39.1818 90.9437 38.9886 90.4247 38.6023C89.9058 38.2121 89.6293 37.6477 89.5952 36.9091L90.9361 36.5909C90.9702 37.0568 91.1368 37.4091 91.4361 37.6477C91.7391 37.8826 92.1634 38 92.7088 38C93.3338 38 93.8546 37.8674 94.2713 37.6023C94.688 37.3333 94.9247 37.0114 94.9815 36.6364C95.0384 36.3295 94.9777 36.0739 94.7997 35.8693C94.6255 35.6648 94.3224 35.5114 93.8906 35.4091L92.5043 35.0682C91.7315 34.875 91.1899 34.5795 90.8793 34.1818C90.5724 33.7841 90.4702 33.2841 90.5724 32.6818C90.6558 32.1894 90.8679 31.7538 91.2088 31.375C91.5535 30.9962 91.9853 30.6989 92.5043 30.483C93.027 30.267 93.5952 30.1591 94.2088 30.1591C95.0724 30.1591 95.7183 30.3485 96.1463 30.7273C96.5743 31.1023 96.8452 31.6023 96.9588 32.2273ZM103.25 30.2727L103.068 31.4091H98.5455L98.7273 30.2727H103.25ZM100.386 28.1818H101.727L100.341 36.5C100.28 36.8788 100.29 37.1629 100.369 37.3523C100.453 37.5379 100.578 37.6629 100.744 37.7273C100.915 37.7879 101.098 37.8182 101.295 37.8182C101.443 37.8182 101.564 37.8106 101.659 37.7955C101.754 37.7765 101.83 37.7614 101.886 37.75L101.977 38.9545C101.875 38.9886 101.737 39.0227 101.562 39.0568C101.392 39.0947 101.182 39.1136 100.932 39.1136C100.553 39.1136 100.197 39.0322 99.8636 38.8693C99.5303 38.7064 99.2746 38.4583 99.0966 38.125C98.9186 37.7917 98.8712 37.3712 98.9545 36.8636L100.386 28.1818ZM106.358 39.2045C105.805 39.2045 105.32 39.1004 104.903 38.892C104.487 38.6799 104.178 38.375 103.977 37.9773C103.777 37.5758 103.722 37.0909 103.812 36.5227C103.9 36.0227 104.068 35.6174 104.318 35.3068C104.568 34.9924 104.871 34.7462 105.227 34.5682C105.587 34.3864 105.973 34.2519 106.386 34.1648C106.803 34.0739 107.218 34.0038 107.631 33.9545C108.169 33.8864 108.606 33.8333 108.943 33.7955C109.28 33.7576 109.534 33.6951 109.705 33.608C109.875 33.5208 109.979 33.3712 110.017 33.1591V33.1136C110.108 32.5568 110.034 32.1231 109.795 31.8125C109.557 31.4981 109.131 31.3409 108.517 31.3409C107.881 31.3409 107.348 31.4811 106.92 31.7614C106.492 32.0417 106.176 32.3409 105.972 32.6591L104.79 32.2045C105.1 31.6742 105.472 31.2614 105.903 30.9659C106.335 30.6667 106.788 30.4583 107.261 30.3409C107.735 30.2197 108.191 30.1591 108.631 30.1591C108.911 30.1591 109.227 30.1932 109.58 30.2614C109.932 30.3258 110.261 30.4602 110.568 30.6648C110.879 30.8693 111.112 31.178 111.267 31.5909C111.426 32.0038 111.449 32.5568 111.335 33.25L110.381 39H109.04L109.244 37.8182H109.176C109.055 38.0076 108.869 38.2102 108.619 38.4261C108.373 38.642 108.061 38.8258 107.682 38.9773C107.307 39.1288 106.866 39.2045 106.358 39.2045ZM106.744 38C107.275 38 107.739 37.8958 108.136 37.6875C108.538 37.4792 108.86 37.2102 109.102 36.8807C109.348 36.5511 109.502 36.2045 109.562 35.8409L109.767 34.6136C109.699 34.6818 109.564 34.7443 109.364 34.8011C109.163 34.8542 108.936 34.9015 108.682 34.9432C108.432 34.9811 108.188 35.0152 107.949 35.0455C107.714 35.072 107.525 35.0947 107.381 35.1136C107.025 35.1591 106.686 35.233 106.364 35.3352C106.045 35.4337 105.777 35.5833 105.557 35.7841C105.341 35.9811 105.206 36.25 105.153 36.5909C105.074 37.0568 105.186 37.4091 105.489 37.6477C105.792 37.8826 106.21 38 106.744 38ZM118.078 30.2727L117.896 31.4091H113.374L113.555 30.2727H118.078ZM115.214 28.1818H116.555L115.169 36.5C115.108 36.8788 115.118 37.1629 115.197 37.3523C115.281 37.5379 115.406 37.6629 115.572 37.7273C115.743 37.7879 115.927 37.8182 116.124 37.8182C116.271 37.8182 116.393 37.8106 116.487 37.7955C116.582 37.7765 116.658 37.7614 116.714 37.75L116.805 38.9545C116.703 38.9886 116.565 39.0227 116.391 39.0568C116.22 39.0947 116.01 39.1136 115.76 39.1136C115.381 39.1136 115.025 39.0322 114.692 38.8693C114.358 38.7064 114.103 38.4583 113.925 38.125C113.747 37.7917 113.699 37.3712 113.783 36.8636L115.214 28.1818ZM118.641 39L120.095 30.2727H121.436L119.982 39H118.641ZM121.175 28.7955C120.913 28.7955 120.688 28.7064 120.499 28.5284C120.313 28.3504 120.22 28.1364 120.22 27.8864C120.22 27.6364 120.313 27.4223 120.499 27.2443C120.688 27.0663 120.913 26.9773 121.175 26.9773C121.436 26.9773 121.66 27.0663 121.845 27.2443C122.035 27.4223 122.129 27.6364 122.129 27.8864C122.129 28.1364 122.035 28.3504 121.845 28.5284C121.66 28.7064 121.436 28.7955 121.175 28.7955ZM126.04 39.1818C125.237 39.1818 124.564 38.9905 124.023 38.608C123.481 38.2254 123.098 37.6894 122.875 37C122.655 36.3106 122.619 35.5076 122.767 34.5909C122.911 33.697 123.197 32.9186 123.625 32.2557C124.057 31.589 124.593 31.0739 125.233 30.7102C125.877 30.3428 126.585 30.1591 127.358 30.1591C128.161 30.1591 128.831 30.3523 129.369 30.7386C129.911 31.1212 130.294 31.6591 130.517 32.3523C130.741 33.0417 130.778 33.8485 130.631 34.7727C130.487 35.6591 130.197 36.4337 129.761 37.0966C129.33 37.7557 128.794 38.2689 128.153 38.6364C127.517 39 126.813 39.1818 126.04 39.1818ZM126.062 37.9773C126.676 37.9773 127.208 37.8201 127.659 37.5057C128.114 37.1913 128.481 36.7765 128.761 36.2614C129.045 35.7462 129.237 35.1894 129.335 34.5909C129.426 34.0227 129.422 33.4943 129.324 33.0057C129.225 32.5133 129.015 32.1174 128.693 31.8182C128.371 31.5152 127.919 31.3636 127.335 31.3636C126.722 31.3636 126.186 31.5227 125.727 31.8409C125.273 32.1591 124.905 32.5777 124.625 33.0966C124.345 33.6155 124.157 34.1742 124.062 34.7727C123.972 35.3409 123.973 35.8693 124.068 36.358C124.167 36.8428 124.377 37.2348 124.699 37.5341C125.025 37.8295 125.479 37.9773 126.062 37.9773ZM134.189 33.75L133.325 39H131.984L133.439 30.2727H134.734L134.507 31.6364H134.621C134.893 31.1932 135.263 30.8371 135.729 30.5682C136.195 30.2955 136.757 30.1591 137.416 30.1591C138 30.1591 138.492 30.2803 138.893 30.5227C139.299 30.7614 139.585 31.125 139.751 31.6136C139.922 32.0985 139.946 32.7121 139.825 33.4545L138.893 39H137.553L138.462 33.5455C138.575 32.8636 138.486 32.3295 138.195 31.9432C137.907 31.5568 137.45 31.3636 136.825 31.3636C136.393 31.3636 135.994 31.4564 135.626 31.642C135.263 31.8277 134.954 32.0985 134.7 32.4545C134.45 32.8106 134.28 33.2424 134.189 33.75ZM148.662 32.2273L147.389 32.5682C147.344 32.3636 147.264 32.1667 147.151 31.9773C147.041 31.7841 146.87 31.6269 146.639 31.5057C146.412 31.3807 146.101 31.3182 145.707 31.3182C145.173 31.3182 144.709 31.4413 144.315 31.6875C143.921 31.9299 143.696 32.2386 143.639 32.6136C143.582 32.9432 143.658 33.2064 143.866 33.4034C144.075 33.6004 144.423 33.7614 144.912 33.8864L146.162 34.2045C146.912 34.3977 147.446 34.6875 147.764 35.0739C148.086 35.4564 148.196 35.9545 148.094 36.5682C148.01 37.0682 147.793 37.5152 147.44 37.9091C147.088 38.303 146.637 38.6136 146.088 38.8409C145.539 39.0682 144.927 39.1818 144.253 39.1818C143.355 39.1818 142.647 38.9886 142.128 38.6023C141.609 38.2121 141.332 37.6477 141.298 36.9091L142.639 36.5909C142.673 37.0568 142.84 37.4091 143.139 37.6477C143.442 37.8826 143.866 38 144.412 38C145.037 38 145.558 37.8674 145.974 37.6023C146.391 37.3333 146.628 37.0114 146.685 36.6364C146.741 36.3295 146.681 36.0739 146.503 35.8693C146.329 35.6648 146.026 35.5114 145.594 35.4091L144.207 35.0682C143.435 34.875 142.893 34.5795 142.582 34.1818C142.276 33.7841 142.173 33.2841 142.276 32.6818C142.359 32.1894 142.571 31.7538 142.912 31.375C143.257 30.9962 143.688 30.6989 144.207 30.483C144.73 30.267 145.298 30.1591 145.912 30.1591C146.776 30.1591 147.421 30.3485 147.849 30.7273C148.277 31.1023 148.548 31.6023 148.662 32.2273Z" fill="#212327"/>
<defs>
<clipPath id="clip0_2605_2">
<rect width="150" height="20" fill="white"/>
</clipPath>
</defs>
</svg>
